<svg enable-background="new 0 0 1280 618.08" height="618.08" viewBox="0 0 1280 618.08" width="1280" xmlns="http://www.w3.org/2000/svg" xmlns:xlink="http://www.w3.org/1999/xlink"><linearGradient id="a" gradientUnits="userSpaceOnUse" x1="640.0005" x2="640.0005" y1="618.0801" y2=".000488"><stop offset=".1943" stop-color="#f5f2a6"/><stop offset=".6398" stop-color="#1f73a2"/><stop offset="1" stop-color="#004177"/></linearGradient><path d="m0 0h1280v618.08h-1280z" fill="url(#a)"/><circle cx="640" cy="383" fill="#fefce9" opacity=".1" r="154.51"/><ellipse cx="640" cy="383" fill="#fefce9" opacity=".4" rx="129.51" ry="131.51"/><circle cx="640" cy="383" fill="#fefce9" r="109.51"/><g fill="#fef9c5"><path d="m287.13 79.919-7.336-1.617 3.862 6.577-4.919-5.546-.701 7.195-.702-7.195-4.92 5.546 3.862-6.577-7.336 1.617 6.569-2.865-6.569-2.867 7.336 1.617-3.862-6.576 4.92 5.545.702-7.194.701 7.194 4.919-5.545-3.862 6.576 7.336-1.617-6.569 2.867z" opacity=".5"/><path d="m385.369 115.469-7.336-1.617 3.863 6.577-4.92-5.546-.701 7.195-.702-7.195-4.92 5.546 3.862-6.577-7.336 1.617 6.569-2.865-6.569-2.868 7.336 1.618-3.862-6.576 4.92 5.545.702-7.195.701 7.195 4.92-5.545-3.863 6.576 7.336-1.618-6.569 2.868z" opacity=".5"/><path d="m589.506 67.919-7.336-1.617 3.862 6.577-4.919-5.546-.701 7.195-.702-7.195-4.92 5.546 3.862-6.577-7.336 1.617 6.569-2.865-6.569-2.867 7.336 1.617-3.862-6.576 4.92 5.545.702-7.194.701 7.194 4.919-5.545-3.862 6.576 7.336-1.617-6.569 2.867z" opacity=".5"/><path d="m740.364 89.394-7.336-1.617 3.863 6.577-4.92-5.546-.701 7.194-.702-7.194-4.92 5.546 3.862-6.577-7.336 1.617 6.569-2.866-6.569-2.867 7.336 1.617-3.862-6.575 4.92 5.545.702-7.195.701 7.195 4.92-5.545-3.863 6.575 7.336-1.617-6.569 2.867z" opacity=".5"/><path d="m1017.188 77.394-7.336-1.617 3.861 6.577-4.919-5.546-.701 7.194-.702-7.194-4.92 5.546 3.862-6.577-7.336 1.617 6.569-2.866-6.569-2.867 7.336 1.617-3.862-6.575 4.92 5.545.702-7.195.701 7.195 4.919-5.545-3.861 6.575 7.336-1.617-6.57 2.867z" opacity=".5"/><path d="m1226.335 112.616-7.336-1.617 3.862 6.577-4.92-5.546-.701 7.195-.701-7.195-4.92 5.546 3.861-6.577-7.335 1.617 6.569-2.866-6.569-2.867 7.335 1.617-3.861-6.575 4.92 5.545.701-7.195.701 7.195 4.92-5.545-3.862 6.575 7.336-1.617-6.569 2.867z" opacity=".5"/><path d="m54.75 77.394-7.336-1.617 3.862 6.577-4.919-5.546-.701 7.194-.702-7.194-4.92 5.546 3.862-6.577-7.336 1.617 6.569-2.866-6.569-2.867 7.336 1.617-3.862-6.575 4.92 5.545.702-7.195.701 7.195 4.919-5.545-3.862 6.575 7.336-1.617-6.569 2.867z" opacity=".5"/><path d="m1068.364 70.445-7.336-1.617 3.863 6.577-4.92-5.547-.701 7.195-.702-7.195-4.92 5.547 3.862-6.577-7.336 1.617 6.569-2.866-6.569-2.867 7.336 1.617-3.862-6.576 4.92 5.546.702-7.195.701 7.195 4.92-5.546-3.863 6.576 7.336-1.617-6.569 2.867z" opacity=".5"/></g><path d="m1188.87 226.94c-6.32 1.53-10.08 6.83-17.311 4.87-4.22-1.14-8.739-2.95-12.97-.82-2.64 1.34-5.03 3.12-8.06 1.86-2.271-.94-3.7-3.27-5.84-4.44-4.4-2.42-9.53.38-14.2.05-4.391-.3-8.45-2.11-11.74-5.01l46.251-8.45z" fill="#fefce9"/><path d="m1280 193v20.52c-1.21.02-1.92.41-3.91 1.71-1.51.99-2.71.98-4.5.61-3.109-.66-6.05-1.83-9.28-1.26-3.06.54-5.81 2.21-8.89 2.74-6.03 1.03-11.01-2.55-16.15-5.1l25.73-8.22z" fill="#fefce9"/><path d="m159.26 222.74c-5.27 1.67-10.98 3.84-14.9 1.43-4.82-2.96-8.14-2.16-13.53-1.72-3.58.3-6.59-.92-10.06-1.46-3.84-.58-6.66.31-10.13 1.74-5.29 2.17-5.94-1.98-10.06-3.71-3.87-1.63-8.24.61-11.97-1.24-2.36-1.17-3.87-3.45-5.75-5.25l31.14-8.53 21.67 5z" fill="#fefce9"/><path d="m1280 213.52v404.56h-1280v-402.08l26.41-5.7 2.93-.63 53 3 .52-.14c1.88 1.8 3.39 4.08 5.75 5.25 3.73 1.85 8.1-.39 11.97 1.24 4.12 1.73 4.77 5.88 10.06 3.71 3.47-1.43 6.29-2.32 10.13-1.74 3.47.54 6.48 1.76 10.06 1.46 5.39-.44 8.71-1.24 13.53 1.72 3.92 2.41 9.63.24 14.9-1.43l6.74 3.93 20.7 4.52 8.3 1.81 15.67 7.67 10.58 8.33 15.75 1 19.34 12.67 8.91 13.33 11.09 4.67 10.12-1.87 10.54 11.2 11-6 18.67 4.67 16.67 15.66 17.66 4.67 4.67 12 6.33 7 19-1.33 14 4.33 86 15.99 37 5.01 39.95 10.72 1.05.28 13.37-.61 4.91-.22 14.77-.67 32.95-1.5 51-15 57 3 39 12 40-22 27-1 31-19 28-5 8-40 37-4 39-24h36l48-6 42.5-15.5.25-.05c3.29 2.9 7.35 4.71 11.74 5.01 4.67.33 9.8-2.47 14.2-.05 2.14 1.17 3.569 3.5 5.84 4.44 3.029 1.26 5.42-.52 8.06-1.86 4.23-2.13 8.75-.32 12.97.82 7.23 1.96 10.99-3.34 17.311-4.87l12.129 6.06 26-17.5 10.27-3.28c5.141 2.55 10.12 6.13 16.15 5.1 3.08-.53 5.83-2.2 8.89-2.74 3.23-.57 6.171.6 9.28 1.26 1.79.37 2.99.38 4.5-.61 1.99-1.3 2.7-1.69 3.91-1.71z" fill="#af9171"/><path d="m869 393.67v224.41h-536v-256.75s24.45-6.86 41.06-11.09c6.83-1.74 12.33-3.04 14.28-3.24 3.04-.3 17.09 4.03 22.66 7.33 6.65 3.95 4.67 7 4.67 7l15.99-3.66 6.68-6.67 11.66 7.67 7 11.66 7-6.33 11.67-2.67 15.33 11.67 22 8 11.66-5.67 11.51-1.84 14.72 8.76 21.45 12.75 34.66 5.33 20.4-11.23 25.6-14.1 19.66 1 19.01 11s7.82-2.1 12.99-6.67c4.17-3.67 5.6-10 7.68-10 2.76 0 12.05 2.17 17.66 7.34 3.85 3.55 4.02 10.1 7 12 3.59 2.28 9.16 3.021 14.33 1.33 5.4-1.76 10.34-6 10.34-6s8 1.34 18.67 12c5.09 5.09 11.15-3.74 16.99-9.33 6.39-6.13 12.34-9.34 12.34-9.34l17.33 1 14.67-6.33 11.84 8.96z" fill="#9e8064"/><path d="m1280 245v373.08h-1280v-301.08l28-14 27 7 63 13 16-12 41 19 19.67 2.67 18.33-3.67 18-13 16.67 4.34 12.33 11.66 20-18 14 5 8 10 15.33-.66 11.67-5.34 13 16 26-2 6.06 13.24 2.94 6.43 14 15.33 22 22 25 2 4.33-10.67 8.67 8.34 18.67-6 15.33 7 19-9.34 18.67 10 17.66-9.33 10.56-3.75 4.44-1.58 5-11.34 7.62-6.61.05-.05 10.67-3 3.7 2.72 2.63 1.94 2.28-2.16 4.05-3.84 4.67-4.33 6.05 7.5.95 1.17 8 10.66 8.67 5.34 5.66 8 2.07 2.43 7.6 8.9 16.67 1.67s9 9 9.66 11c.67 2 16.34 11.66 16.34 11.66l22-1.33 7.561 6.67 3.769 3.33 3.47 1.88 8.86 4.79 13.87.53 5 .189 13.83.53 1.97.081 8.65-3.93 9.68-4.4 8.27 2 7.591 1.84 4.81 1.16 18-21.17 9-13.17 7.67-14 21.84-5.37 1.16-.29 7.33-13 27.33-2 6.34-12.67 10-8.33 16.66 8.66 7.34 7.34 7.33-17 5-14 9.33-14.34s2.67-2 10 2c7.34 4 17 16.67 17 16.67l14.34 4 9.33-20 13.33-27.67s8.34-5 11.34-7 6.66-17 14.33-21 20-7.66 25.33-6.33c5.34 1.33 11.67 2 20.67 4s29.67 10.33 29.67 10.33 18.33 13.67 32.33 15c14 1.34 32.33-1.66 32.33-1.66l24.67-4 16 5.66s22.34-16.66 24.67-16.66 11.67-15.34 11.67-15.34l11.66-8z" fill="#7f6248"/><path d="m1280 361.33v256.75h-473.97l5.229-132.01 1.741-44.07 7.05-8.37 3.62-4.3 8 10 7.33-14.66 11.33 7.66 4.67-15 9.67 11.34 4.33-6.56 6.67-10.11 12 12.67 9.33-18 7.67 14.66 13.66-14.66 9.34 12 12-14.34 8.66 13.34 10.67-15.34 6 13.67 13.33-13.67 7 15 12-13.66 12 12.66 7-12.66 9 10.83 10.67-20.5 6 14.33 10.67-21.33 7.66 13 7.67-14.67 14.33 16 8.67-20 7.67 12 8.66-23s5.67 14.34 6.67 16c1 1.67 10-16 10-16l7.33 12 11-16.66 5.34 15.33 11-12.67 9.34 11.34 10.33-10 8.33 17 4.34-16.34 12 7 8.33-11.66 8.67 9 10.33-11.67 9.67 14.67 9.33-13 8.67 14.33 7.66-16 5.34 13.33z" fill="#66553d"/><path d="m1279.83 618.08h-1279.83v-241.58l9-16.5 10 19 9-16.5 24.5 22 8.5-22 14 20 13-22.5 14.5 28 11-25 9.5 19 18.5-22 10.5 20 17-10 11 21.5 11.5-18 10.5 17 28-24.5 5.5 29.5 15.5-22 6.5 21.5 16-15.5 10.5 18.5 12-17 15 17.5 15-20 7 12.19 6.5 11.31 12.5-17.5 14 22 14-16.5 12.5 30 17-5.5 8.5 14.5 10-14.5 18.5 19.5 12.5-25 10 20 14-14.5 16 17.5 11-23 11.5 17.5 9-12 16 26.5 12-23 19 22.5 11.5-16.5 13.5 20.5 7-16.5 16.5 16 10.5-16 14.5 21 11.5-25.5 15.5 21.5 3-14.5 18.5 16.5 7.73-19.33.27-.67 6.97 5.88 18.53 15.62 4.2-10.3 1.3-3.2 3.7 3.39 8.3 7.61 5.53-7.08 6.97-8.92 3.65 5.07 7.85 10.93 10.1-13.33 2.4-3.17 5.19 5.01 8.81 8.49 16-14.5 3.05 5.13 7.95 13.37 19.5-10.5 4.5 18.5 7-17.5 9 15 4-17 15.5 14.5 10.5-16 23.5 20 3.5-14 10.5 16.5 4.5-13 7 18.5 11-13.5 8 13 13-12 9.5 12 11-12 9.5 15.5 7.5-27 10.5 20.5 10.5-14.5 14.5 16 12.5-25.5 14 17.5 10.5-21 12.5 15.5 12.5-16.5 14 23 14.5-16 9 14 12-14 10.5 13 18-16.5 11 14.5 11.5-15.5 11.5 17 14-19 13 18.5 9.5-18.5 8.5 16 8.5-18z" fill="#564736"/><path d="m1037.99 478v140.08h-790.32v-133.75l12 9.34 12-12.67 12 10.67 6-10.67 8.67 12.67 11.33-12.67 14 14.67 9.33-11.41 2.67-3.26 10.33 18.33 10.67-18.33 6.66 20.33 15-7 14.67 20.33 9.33-18.66 14.67 18.33 15.33-16.33 6.67 21.33 16.67-21 11 20.67 12-25.34 7.66 22 17.34-19.33 8 19 18.66-24.33 8 18 14.67-18 10.67 18.66 11.66-24 12.34 23.34 7.66-28 10.34 22.66 20-22.66 7.66 19.33 14.34-24.33 6.33 26 22.67-18.67 8.66 16 12.34-23.33 6 20 13.33-25.67 13.67 26 16.33-13.67 9.33 12 14.34-11 12.33 9.67 22.67-13.33 5.59 6.07 6.07 6.59 11.67-14.33 14.67 23 9.32-13 14.34 15.67 1.67-2.28 8.33-11.39 10.33 12.67 17.33-12.67 10.67 18 17-15 24.33 15.67 9.34-22.67 13 19 14-20.67 8.33 12.34 8.67-15.34 15.66 14.67z" fill="#47392b"/><path d="m1280 456.33v161.75h-1280v-159.08l49-4.67 32 8 64.67.67 51.33 9.33 48.67 2.67 44.66-2 28.67 4 34 11.33 23.33 14.67 28 8s17.34 6.67 21.34 9.33c4 2.67 12.33 12.67 16.33 14 4 1.34 25-9.66 25-9.66s6.67 4 11 6.33 13.67 9.33 16.67 10.33 10.66-3.66 11.66-6c1-2.33 18 3 18 3l25.67 4s3.67 3 6 7.34c2.33 4.33 17 8.33 20 9 3 .66 22-5.34 22-5.34s7.33 3.34 11.67 5.67c4.33 2.33 23 10.33 30.33 11.67 7.33 1.33 30-5.34 39.66-8.67 9.67-3.33 25.34-13.67 34.34-13s19.66-3.67 26-9.33c6.33-5.67 15.66-14.34 18.66-13.67s20 9.33 20 9.33 5.34-12.66 12-13.33c6.67-.67 16.67-2 23.34-4 6.66-2 30-8.33 31.33-8.67 1.33-.33 69-13.66 75.33-15 6.34-1.33 41.33-20 50.33-19.33s47-2.67 47-2.67l33 1.34 100-7.34s46.34-5.33 52-4.33c5.67 1 77.01-5.67 77.01-5.67z" fill="#382924"/><path d="m76.134 503.406 19.391.001c-.523-12.728-1.568-25.763-.328-38.466.629-6.436 2.808-13.325 4.745-19.475 2.031-6.452 4.714-12.734 8.448-18.394 12.127-18.382 35.183-25.672 56.318-24.586 18.603.957 37.658 3.4 54.078 11.685 5.152 2.6 9.782 5.341 14.84 8.117 7.102 3.899 15.658 10.217 23.545 12.07 9.184 2.159 16.492-3.168 25.721-1.196-7.316-2.288-14.267 1.543-21.105-1.922-6.971-3.532-14.001-9.651-20.081-14.497-3.144-2.505-5.636-4.604-9.854-4.749 17.271.594 34.755-.09 52.044-.185 4.988-.028 9.976-.088 14.962-.201 13.833-.314 27.887-1.327 40.42-7.731 7.055-3.604 13.221-8.589 19.308-13.602-11.496 8.891-14.154 8.461-22.471 11.436-9.002 3.221-20.588 3.274-30.077 3.571-13.581.424-27.171.188-40.756.188-15.407 0-30.292-4.521-45.448-6.638-4.439-.62-8.911-1.04-13.396-1.076 6.409.054 18.058-9.952 18.058-9.952-5.514 3.009-12.834 2.415-12.834 2.415 5.668-5.528 12.188-10.243 19.107-14.082 5.129-2.847 10.434-5.665 16.296-6.589 6.708-1.057 12.478-1.17 19.206-1.09 12.886.156 25.517-2.875 38.455-2.28 6.161.283 11.909 1.012 16.41 5.648-2.591-2.669-3.716-5.548-7.3-7.3-3.808-1.86-8.275-2.464-12.433-3.007-12.6-1.643-25.253.198-37.862-.806-7.865-.625-15.886-1.893-23.495.958-4.192 1.57-7.988 4.001-12.06 5.834-16.002 7.204-31.985 7.175-49.033 4.587-5.003-.758-10.994-1.512-15.978-.785 2.196-5.327 9.041-10.766 12.864-14.529 4.433-4.362 8.379-9.031 12.94-13.016 11.428-9.977 21.339-21.877 34.74-29.364 8.933-4.989 18.779-7.495 28.611-10.051 9.39-2.441 19.603-2.559 28.004-7.93 4.693-2.999 7.568-7.678 10.417-12.334-6.125 4.249-12.441 9.216-19.697 11.305-7.011 2.019-14.366 1.742-21.575 2.248-17.982 1.262-36.624 11.253-50.8 21.908-6 4.509-16.993 12.191-24.016 15.086 0 0-.446-3.715 1.07-7.738 3.175-8.43 5.22-16.981 9.817-24.838 5.104-8.726 8.23-17.842 18.25-21.988 3.721-1.539 7.693-2.598 10.997-4.986 3.602-2.604 5.109-6.847 6.731-10.795 1.491-3.63 3.901-7.252 4.79-12.834-.287-.191-4.381 5.284-4.828 5.842-2.827 3.535-6.434 6.184-10.282 8.516-8.387 5.082-17.71 7.954-26.123 12.874-9.411 5.505-11.835 17.645-15.991 26.854-3.639 8.061-8.215 15.708-11.076 24.109-2.637 7.744-4.692 15.695-9.505 22.45-5.413 7.595-11.974 14.338-18.896 20.563-6.598 5.932-14.347 10.848-20.578 17.131-3.941 3.976-7.515 8.322-11.934 11.8.802-.632-5.623-13.563-6.189-15.043-8.409-22.004 5.762-44.839 18.728-61.755 3.197-4.172 6.939-7.782 10.599-11.532 2.956-3.029 5.671-6.384 9.62-8.16-9.135 1.962-16.491 9.482-23.038 15.682-9.25 8.758-18.834 17.448-26.387 27.774-8.191 11.201-11.642 23.615-11.765 37.414-.083 9.396.751 18.856 1.724 28.193.595 5.713 1.285 11.436 2.074 17.125 1.919 13.826-14.245-4.749-14.245-4.749 1.499 11.068 18.229 31.104 17.807 42.145-.173 4.652.301 34.722.301 34.722" fill="#fef9c5"/><path d="m72.854 504.5 19.391.001c-.523-12.729-1.568-25.763-.328-38.467.628-6.435 2.808-13.325 4.744-19.474 2.031-6.452 4.714-12.735 8.448-18.394 12.127-18.382 35.183-25.673 56.318-24.587 18.603.958 37.658 3.4 54.079 11.686 5.152 2.6 9.782 5.341 14.839 8.116 7.102 3.899 15.658 10.217 23.545 12.071 9.184 2.158 16.493-3.168 25.722-1.196-7.316-2.288-14.268 1.543-21.105-1.922-6.971-3.533-14.001-9.652-20.081-14.497-3.144-2.505-5.636-4.604-9.854-4.75 17.271.594 34.755-.09 52.044-.185 4.988-.027 9.976-.087 14.962-.2 13.833-.315 27.887-1.327 40.421-7.731 7.055-3.604 13.221-8.589 19.308-13.602-11.496 8.891-14.154 8.46-22.471 11.435-9.002 3.222-20.588 3.275-30.077 3.572-13.582.424-27.172.188-40.756.188-15.407 0-30.292-4.521-45.448-6.638-4.439-.621-8.911-1.04-13.396-1.076 6.41.053 18.058-9.952 18.058-9.952-5.514 3.009-12.834 2.415-12.834 2.415 5.669-5.529 12.188-10.244 19.107-14.082 5.129-2.847 10.434-5.666 16.297-6.589 6.708-1.058 12.477-1.171 19.206-1.091 12.886.157 25.517-2.874 38.455-2.279 6.162.283 11.909 1.011 16.411 5.648-2.591-2.67-3.716-5.548-7.3-7.3-3.808-1.86-8.275-2.465-12.432-3.007-12.6-1.644-25.254.198-37.863-.807-7.865-.625-15.885-1.893-23.495.958-4.192 1.569-7.987 4.001-12.059 5.834-16.002 7.204-31.985 7.174-49.033 4.587-5.003-.758-10.994-1.512-15.978-.786 2.196-5.326 9.041-10.766 12.864-14.528 4.433-4.361 8.379-9.031 12.94-13.015 11.428-9.977 21.339-21.878 34.74-29.364 8.933-4.989 18.779-7.495 28.61-10.051 9.39-2.441 19.603-2.559 28.004-7.93 4.692-2.999 7.568-7.678 10.416-12.334-6.125 4.249-12.441 9.216-19.697 11.306-7.011 2.019-14.366 1.742-21.575 2.248-17.982 1.261-36.624 11.252-50.8 21.907-6.001 4.509-16.993 12.191-24.016 15.086 0 0-.446-3.715 1.07-7.738 3.176-8.43 5.22-16.981 9.817-24.838 5.105-8.726 8.23-17.842 18.25-21.988 3.721-1.539 7.693-2.598 10.997-4.986 3.602-2.604 5.109-6.848 6.731-10.795 1.491-3.63 3.901-7.252 4.79-12.834-.287-.191-4.381 5.284-4.828 5.842-2.826 3.536-6.434 6.184-10.282 8.516-8.386 5.082-17.709 7.954-26.122 12.874-9.412 5.505-11.835 17.646-15.991 26.854-3.639 8.061-8.215 15.708-11.076 24.109-2.637 7.744-4.691 15.695-9.505 22.45-5.413 7.595-11.973 14.337-18.896 20.562-6.598 5.933-14.347 10.849-20.578 17.132-3.941 3.976-7.514 8.322-11.933 11.8.802-.633-5.623-13.563-6.189-15.044-8.41-22.003 5.761-44.838 18.727-61.754 3.197-4.172 6.94-7.782 10.599-11.532 2.956-3.029 5.671-6.384 9.62-8.16-9.135 1.962-16.491 9.482-23.038 15.682-9.25 8.758-18.834 17.448-26.386 27.774-8.191 11.201-11.643 23.615-11.765 37.414-.083 9.396.751 18.856 1.723 28.193.595 5.712 1.286 11.436 2.075 17.125 1.918 13.826-14.246-4.749-14.246-4.749 1.499 11.067 18.229 31.104 17.808 42.144-.177 4.653.297 34.723.297 34.723" fill="#382924"/><g fill="#fef9c5"><path d="m70.249 369.987 5.119 8.4 9.82.544-6.406 7.464 2.516 9.508-9.077-3.786-8.266 5.332.796-9.804-7.625-6.212 9.57-2.275z"/><path d="m113.336 323.734-2.618 8.856 5.81 7.177-9.231.247-5.031 7.744-3.087-8.702-8.92-2.392 7.324-5.627-.483-9.221 7.613 5.226z"/><path d="m164.079 306.03 2.25 6.385 6.535 1.767-5.377 4.111.339 6.763-5.573-3.844-6.327 2.413 1.933-6.489-4.249-5.269 6.769-.168z"/><path d="m219.171 268.126-.657 7.197 5.553 4.623-7.046 1.596-2.68 6.713-3.697-6.209-7.212-.472 4.763-5.437-1.778-7.003 6.642 2.847z"/><path d="m244.27 284.74 3.529 6.937 7.717 1.028-5.507 5.498 1.409 7.658-6.934-3.54-6.845 3.709 1.221-7.69-5.64-5.362 7.69-1.216z"/><path d="m233.353 351.627 6.659 1.218 4.781-4.793.896 6.709 6.039 3.064-6.104 2.928-1.048 6.689-4.673-4.901-6.683 1.071 3.216-5.958z"/><path d="m292.035 359.139 5.663 3.71 6.267-2.56-1.779 6.529 4.372 5.17-6.762.327-3.564 5.757-2.401-6.331-6.575-1.609 5.278-4.241z"/><path d="m337.556 388.083 4.412 3.854 5.676-1.451-2.302 5.385 3.133 4.952-5.833-.525-3.74 4.51-1.305-5.711-5.442-2.16 5.027-3.008z"/><path d="m259.772 421.194 2.25 6.385 6.535 1.769-5.377 4.11.339 6.763-5.573-3.844-6.326 2.413 1.933-6.489-4.249-5.269 6.768-.168z"/></g><path d="m68.525 370.49 5.119 8.4 9.82.544-6.405 7.463 2.515 9.509-9.077-3.786-8.266 5.332.796-9.805-7.625-6.211 9.57-2.275z" fill="#f8bbcf"/><circle cx="69.885" cy="385.751" fill="#fce4eb" r="6.175"/><path d="m111.612 324.237-2.618 8.855 5.81 7.177-9.231.248-5.031 7.744-3.087-8.703-8.92-2.391 7.324-5.626-.484-9.222 7.614 5.226z" fill="#f8bbcf"/><circle cx="101.849" cy="334.803" fill="#fce4eb" r="5.797"/><path d="m162.354 306.533 2.251 6.384 6.535 1.768-5.377 4.111.339 6.762-5.573-3.843-6.326 2.413 1.933-6.489-4.249-5.269 6.768-.168z" fill="#f8bbcf"/><circle cx="161.095" cy="317.003" fill="#fce4eb" r="4.25"/><path d="m217.447 268.629-.657 7.197 5.553 4.623-7.046 1.596-2.679 6.713-3.698-6.209-7.212-.472 4.763-5.437-1.778-7.004 6.642 2.848z" fill="#f8bbcf"/><circle cx="211.566" cy="278.23" fill="#fce4eb" r="4.536"/><path d="m242.546 285.243 3.53 6.937 7.716 1.028-5.507 5.498 1.409 7.658-6.934-3.54-6.845 3.709 1.221-7.69-5.639-5.362 7.689-1.216z" fill="#f8bbcf"/><circle cx="242.694" cy="297.369" fill="#fce4eb" r="4.886"/><path d="m231.629 352.13 6.659 1.218 4.781-4.793.897 6.709 6.038 3.064-6.105 2.928-1.047 6.689-4.673-4.901-6.682 1.071 3.215-5.958z" fill="#f8bbcf"/><circle cx="240.092" cy="358.424" fill="#fce4eb" r="4.249"/><path d="m290.311 359.642 5.663 3.71 6.267-2.56-1.78 6.529 4.373 5.17-6.762.327-3.564 5.757-2.402-6.331-6.573-1.609 5.278-4.241z" fill="#f8bbcf"/><circle cx="295.664" cy="368.729" fill="#fce4eb" r="4.25"/><path d="m335.833 388.586 4.411 3.853 5.675-1.45-2.301 5.385 3.133 4.952-5.833-.525-3.739 4.51-1.305-5.711-5.443-2.161 5.027-3.007z" fill="#f8bbcf"/><circle cx="339.339" cy="397.01" fill="#fce4eb" r="3.677"/><path d="m258.048 421.697 2.25 6.385 6.535 1.769-5.377 4.11.339 6.763-5.573-3.844-6.326 2.413 1.933-6.489-4.249-5.269 6.768-.168z" fill="#f8bbcf"/><circle cx="256.789" cy="432.168" fill="#fce4eb" r="4.25"/><path d="m529.063 365.334v-5.164h10.815l7.705-5.275-39.749-4.724v-2.636h6.287l7.708-5.272-21.632-2.433h-.218v-2.639l4.799-2.442c-5.02-.278-12.566-.466-15.128-3.378-2.56 2.912-10.106 3.1-15.125 3.378l4.801 2.442v2.639h-.221l-21.63 2.433 7.706 5.272h6.287v2.636h-.541l-39.749 4.724 7.705 5.275h10.817v5.164h5.305v24.992h5.307v-24.992h10.615v24.992h-10.615v.072h-5.307v-.072h-5.305v5.273h-4.531v5.271h88.423v-5.27h-4.528v-5.273h-5.307v-24.982h-5.307v24.982h-10.478v-24.992h21.091zm-26.399 24.992h-26.431v-24.992h26.431z" fill="#fef9c5"/><path d="m526.805 366.842v-5.164h10.818l7.705-5.272-39.749-4.727v-2.636h6.287l7.708-5.272-21.635-2.433h-.218v-2.636l4.801-2.445c-5.02-.277-12.566-.466-15.128-3.377-2.559 2.911-10.106 3.1-15.125 3.377l4.801 2.445v2.636c-.156.032-21.854 2.433-21.854 2.433l7.708 5.272h6.287v2.636h-.541l-39.751 4.727 7.708 5.272h10.815v5.164h5.307v24.992h-5.307v5.273h-4.528v5.271h88.423v-5.271h-4.531v-5.273h-5.307v-24.992zm-58.135 24.992h-10.614v-24.992h10.614zm31.738 0h-26.434v-24.992h26.434zm15.785 0h-10.48v-24.992h10.48z" fill="#7f6248"/><path d="m446.042 366.25c.347-.41.314-.74.218-.949-.111-.246-.342-.393-.598-.469v-4.154h-.744v4.107c-.404.063-.687.264-.776.553-.092.301.035.613.379.928l-2.54 2.539v.52l.992 3.701h4.63l.992-3.701v-.52zm-1.148 5.984h-1.305l-.739-2.91h2.043v2.91zm.215-6.365.037-.047c-.161-.125-.233-.211-.266-.262.07-.029.208-.061.382-.049.196.016.305.076.315.08 0 0-.008.086-.184.262l.015.016zm1.88 6.365h-1.304v-2.91h2.043z" fill="#7f6248"/><circle cx="445.289" cy="370.811" fill="#fefce9" r=".889"/><circle cx="445.289" cy="370.811" fill="#fefce9" opacity=".4" r="1.426"/><circle cx="445.289" cy="370.811" fill="#fefce9" opacity=".1" r="1.924"/><path d="m535.981 366.25c.348-.41.315-.74.219-.949-.112-.246-.343-.393-.598-.469v-4.154h-.744v4.107c-.404.063-.687.264-.776.553-.092.301.035.613.379.928l-2.539 2.539v.52l.992 3.701h4.63l.992-3.701v-.52zm-1.148 5.984h-1.305l-.739-2.91h2.043v2.91zm.216-6.365.037-.047c-.161-.125-.233-.211-.265-.262.069-.029.208-.061.381-.049.196.016.305.076.315.08 0 0-.008.086-.184.262l.015.016zm1.88 6.365h-1.305v-2.91h2.043z" fill="#7f6248"/><circle cx="535.229" cy="370.811" fill="#fefce9" r=".889"/><circle cx="535.229" cy="370.811" fill="#fefce9" opacity=".4" r="1.426"/><circle cx="535.229" cy="370.811" fill="#fefce9" opacity=".1" r="1.924"/><path d="m1151.812 277.733c-21.181 2.18-43.886 3.049-70.731 3.049h-.13c-26.848 0-49.553-.869-70.732-3.049-21.226-2.178-40.924-5.622-61.842-10.807l11.549 27.717h18.959l8.846 19.612h16.43v43.581h-25.275v19.611h25.275v125.996h-5.272v43.622h31.728l-5.317-43.622v-125.997h111.262v125.996h-5.274v43.622h31.686l-5.274-43.622v-125.996h25.32v-19.611h-25.32v-43.581h16.43l8.891-19.612h19.088l11.506-27.717c-20.881 5.187-40.578 8.631-61.803 10.808zm-126.515 80.102v-43.581h45.147v43.581zm111.262 0h-44.976v-43.581h44.976z" fill="#fef9c5"/><path d="m1156.413 280.179c-21.177 2.169-43.841 3.014-70.725 3.014h-.122c-26.842 0-49.545-.844-70.722-3.014-21.219-2.17-40.95-5.667-61.845-10.849l11.572 27.766h18.926l8.882 19.571h16.396v43.6h-25.278v19.609h25.278v126.02h-5.266v43.599h31.706v-43.599h-5.265v-126.02h111.231v126.02h-5.266v43.599h31.707v-43.599h-5.306v-126.02h25.317v-19.609h-25.317v-43.6h16.436l8.882-19.571h19.088l11.531-27.766c-20.892 5.182-40.623 8.679-61.84 10.849zm-126.461 80.088v-43.6h45.127v43.6zm111.232 0h-44.967v-43.6h44.967z" fill="#382924"/></svg>